<svg height="1317" node-id="1" sillyvg="true" template-height="1317" template-width="1319" version="1.1" viewBox="0 0 1319 1317" width="1319" xmlns="http://www.w3.org/2000/svg" xmlns:xlink="http://www.w3.org/1999/xlink"><defs node-id="49"></defs><path d="M 963.70 359.00 L 970.80 356.70 L 974.90 355.80 L 973.10 358.20 L 967.80 363.70 L 969.80 365.20 L 967.80 363.70 L 947.70 390.90 L 930.10 414.00 L 913.70 434.50 L 889.00 463.20 L 880.00 473.00 L 878.40 474.30 L 876.70 475.10 L 874.70 475.40 L 872.80 475.10 L 871.00 474.40 L 869.30 473.20 L 855.80 459.60 L 854.80 458.30 L 853.70 455.50 L 853.60 453.30 L 854.10 451.00 L 854.80 449.60 L 857.00 447.20 L 864.50 441.50 L 880.40 428.10 L 914.60 396.50 L 935.40 378.00 L 948.00 368.10 L 953.60 364.30 L 957.30 362.00 L 963.70 359.00 Z" fill="#4f5b75" fill-rule="nonzero" node-id="51" stroke="#000000" stroke-linecap="butt" stroke-width="5" target-height="119.600006" target-width="121.30005" target-x="853.6" target-y="355.8"/><g node-id="152"><path d="M 977.70 375.80 L 975.10 378.00 L 972.30 379.60 L 969.20 380.70 L 966.10 381.20 L 962.90 381.20 L 959.80 380.70 L 956.80 379.60 L 954.00 378.00 L 951.30 375.80 L 949.20 373.20 L 947.50 370.40 L 946.50 367.40 L 945.90 364.20 L 945.90 361.10 L 946.50 357.90 L 947.50 354.90 L 949.10 352.10 L 951.30 349.50 L 954.00 347.30 L 956.80 345.70 L 959.80 344.60 L 962.90 344.10 L 966.10 344.10 L 969.20 344.60 L 972.30 345.70 L 975.10 347.30 L 977.70 349.50 L 979.90 352.10 L 981.50 354.90 L 982.50 357.90 L 983.10 361.10 L 983.10 364.20 L 982.50 367.40 L 981.50 370.40 L 979.90 373.20 L 977.70 375.80 Z" fill="#4f5b75" fill-rule="nonzero" group-id="1" node-id="55" stroke="#000000" stroke-linecap="butt" stroke-width="5" target-height="37.100006" target-width="37.19995" target-x="945.9" target-y="344.1"/></g><path d="M 455.20 525.20 L 454.00 524.00 L 452.70 521.10 L 452.70 517.90 L 453.20 516.30 L 464.90 491.60 L 469.80 482.20 L 474.90 473.40 L 482.70 462.20 L 491.80 451.80 L 497.00 446.80 L 502.90 441.70 L 505.60 440.40 L 508.60 440.40 L 511.50 441.70 L 540.40 463.30 L 553.10 473.20 L 575.30 491.40 L 595.40 509.00 L 626.30 538.00 L 628.00 540.40 L 628.50 543.30 L 627.90 546.20 L 622.80 556.90 L 617.80 566.30 L 612.40 575.30 L 606.70 583.90 L 600.60 592.20 L 586.50 609.40 L 578.10 618.90 L 576.60 620.20 L 575.00 621.00 L 573.10 621.40 L 571.20 621.30 L 569.40 620.70 L 567.80 619.60 L 455.20 525.20 Z" fill="#4f5b75" fill-rule="nonzero" node-id="58" stroke="#000000" stroke-linecap="butt" stroke-width="5" target-height="181.00003" target-width="175.79999" target-x="452.7" target-y="440.4"/><path d="M 113.80 293.10 L 140.40 260.10 L 153.30 245.00 L 165.90 230.90 L 178.80 217.20 L 192.10 203.80 L 205.80 190.60 L 220.60 177.20 L 236.10 163.80 L 253.30 149.60 L 291.80 119.30 L 600.90 421.60 L 433.30 596.10 L 113.80 293.10 Z" fill="#d5fdff" fill-rule="nonzero" node-id="60" stroke="#000000" stroke-linecap="butt" stroke-width="5" target-height="476.8" target-width="487.10004" target-x="113.8" target-y="119.3"/><path d="M 201.20 196.10 L 519.50 503.90" fill="none" node-id="62" stroke="#000000" stroke-linecap="round" stroke-width="5" target-height="307.8" target-width="318.3" target-x="201.2" target-y="196.1"/><path d="M 378.70 206.00 L 211.30 384.70" fill="none" node-id="64" stroke="#000000" stroke-linecap="round" stroke-width="5" target-height="178.70001" target-width="167.40001" target-x="211.3" target-y="206"/><path d="M 490.50 317.90 L 325.10 492.10" fill="none" node-id="66" stroke="#000000" stroke-linecap="round" stroke-width="5" target-height="174.20001" target-width="165.4" target-x="325.1" target-y="317.9"/><path d="M 201.90 198.70 L 207.30 288.10" fill="none" node-id="68" stroke="#000000" stroke-linecap="round" stroke-width="5" target-height="89.40001" target-width="5.400009" target-x="201.9" target-y="198.7"/><path d="M 178.30 220.00 L 181.20 263.60" fill="none" node-id="70" stroke="#000000" stroke-linecap="round" stroke-width="5" target-height="43.600006" target-width="2.899994" target-x="178.3" target-y="220"/><path d="M 378.80 212.10 L 384.20 301.60" fill="none" node-id="72" stroke="#000000" stroke-linecap="round" stroke-width="5" target-height="89.5" target-width="5.4000244" target-x="378.8" target-y="212.1"/><path d="M 406.80 233.40 L 409.70 276.90" fill="none" node-id="74" stroke="#000000" stroke-linecap="round" stroke-width="5" target-height="43.5" target-width="2.9000244" target-x="406.8" target-y="233.4"/><path d="M 412.70 405.30 L 418.00 494.80" fill="none" node-id="76" stroke="#000000" stroke-linecap="round" stroke-width="5" target-height="89.5" target-width="5.299988" target-x="412.7" target-y="405.3"/><path d="M 389.00 426.60 L 391.90 470.20" fill="none" node-id="78" stroke="#000000" stroke-linecap="round" stroke-width="5" target-height="43.600006" target-width="2.899994" target-x="389" target-y="426.6"/><path d="M 824.60 872.20 L 826.00 873.10 L 829.10 873.90 L 832.30 873.40 L 833.80 872.60 L 856.20 856.90 L 864.60 850.40 L 872.40 843.80 L 882.00 834.30 L 886.50 829.00 L 890.70 823.50 L 894.80 817.50 L 898.70 810.80 L 899.50 807.90 L 899.00 804.90 L 897.20 802.40 L 870.30 777.20 L 858.10 766.20 L 835.90 747.10 L 814.50 729.90 L 780.00 704.10 L 777.30 702.80 L 774.30 702.70 L 771.60 703.90 L 761.90 710.70 L 753.50 717.30 L 745.50 724.10 L 738.10 731.20 L 731.00 738.70 L 716.50 755.50 L 708.60 765.40 L 707.50 767.10 L 707.00 768.90 L 707.00 770.80 L 707.40 772.60 L 708.30 774.30 L 709.60 775.80 L 824.60 872.20 Z" fill="#4f5b75" fill-rule="nonzero" node-id="80" stroke="#000000" stroke-linecap="butt" stroke-width="5" target-height="171.20001" target-width="192.5" target-x="707" target-y="702.7"/><path d="M 1039.60 1203.70 L 1071.40 1175.80 L 1085.90 1162.20 L 1099.50 1149.00 L 1112.70 1135.60 L 1125.50 1121.70 L 1138.00 1107.50 L 1150.80 1092.10 L 1163.50 1076.10 L 1177.00 1058.30 L 1205.60 1018.60 L 890.50 722.60 L 723.20 897.40 L 1039.60 1203.70 Z" fill="#d5fdff" fill-rule="nonzero" node-id="82" stroke="#000000" stroke-linecap="butt" stroke-width="5" target-height="481.09998" target-width="482.39996" target-x="723.2" target-y="722.6"/><path d="M 1132.80 1112.30 L 811.70 807.30" fill="none" node-id="84" stroke="#000000" stroke-linecap="round" stroke-width="5" target-height="305.00006" target-width="321.10004" target-x="811.7" target-y="807.3"/><path d="M 1115.30 935.40 L 943.80 1110.20" fill="none" node-id="86" stroke="#000000" stroke-linecap="round" stroke-width="5" target-height="174.79993" target-width="171.50006" target-x="943.8" target-y="935.4"/><path d="M 998.80 828.40 L 831.80 1001.10" fill="none" node-id="88" stroke="#000000" stroke-linecap="round" stroke-width="5" target-height="172.69995" target-width="167" target-x="831.8" target-y="828.4"/><path d="M 1114.50 938.70 L 1141.20 1024.20" fill="none" node-id="90" stroke="#000000" stroke-linecap="round" stroke-width="5" target-height="85.49994" target-width="26.699951" target-x="1114.5" target-y="938.7"/><path d="M 1151.80 969.00 L 1164.50 1010.80" fill="none" node-id="92" stroke="#000000" stroke-linecap="round" stroke-width="5" target-height="41.799988" target-width="12.699951" target-x="1151.8" target-y="969"/><path d="M 890.90 727.20 L 913.80 813.90" fill="none" node-id="94" stroke="#000000" stroke-linecap="round" stroke-width="5" target-height="86.70001" target-width="22.899963" target-x="890.9" target-y="727.2"/><path d="M 929.20 760.20 L 940.00 802.50" fill="none" node-id="96" stroke="#000000" stroke-linecap="round" stroke-width="5" target-height="42.299988" target-width="10.799988" target-x="929.2" target-y="760.2"/><path d="M 918.70 908.10 L 944.20 994.10" fill="none" node-id="98" stroke="#000000" stroke-linecap="round" stroke-width="5" target-height="86" target-width="25.5" target-x="918.7" target-y="908.1"/><path d="M 899.10 935.50 L 911.20 977.40" fill="none" node-id="100" stroke="#000000" stroke-linecap="round" stroke-width="5" target-height="41.900024" target-width="12.100037" target-x="899.1" target-y="935.5"/><path d="M 634.80 748.90 L 619.10 734.60 L 604.90 721.10 L 591.20 706.90 L 576.70 690.70 L 574.80 689.00 L 572.70 687.90 L 570.30 687.30 L 567.90 687.30 L 565.50 687.80 L 563.30 689.00 L 503.50 730.80 L 501.80 731.70 L 498.00 732.50 L 494.20 731.90 L 492.40 731.00 L 477.30 722.00 L 463.00 713.90 L 449.40 706.80 L 436.70 700.60 L 424.60 695.30 L 413.30 690.70 L 400.80 686.20 L 389.10 682.60 L 378.10 679.80 L 367.80 677.70 L 358.00 676.40 L 348.90 675.70 L 340.50 675.60 L 332.60 676.00 L 325.00 676.90 L 317.80 678.20 L 310.90 680.00 L 304.40 682.30 L 298.10 685.00 L 292.00 688.20 L 286.10 691.90 L 280.40 696.00 L 274.90 700.60 L 269.60 705.80 L 264.50 711.40 L 259.60 717.60 L 259.40 718.10 L 260.00 719.30 L 261.20 720.00 L 261.70 719.90 L 265.50 718.50 L 269.60 717.40 L 274.20 716.80 L 279.30 716.60 L 284.90 716.80 L 291.60 717.70 L 298.90 719.30 L 306.80 721.50 L 315.50 724.50 L 332.40 731.80 L 341.50 736.40 L 351.20 741.80 L 370.00 753.50 L 379.90 760.20 L 399.80 775.20 L 419.70 791.90 L 429.80 801.00 L 449.30 820.10 L 468.40 840.90 L 477.60 851.70 L 486.60 862.80 L 495.30 874.30 L 503.70 886.10 L 511.80 898.10 L 519.50 910.40 L 526.70 922.90 L 533.60 935.60 L 540.00 948.60 L 545.80 961.70 L 551.10 975.00 L 555.80 988.40 L 559.20 999.30 L 562.20 1010.20 L 564.70 1021.20 L 566.70 1032.30 L 568.40 1043.40 L 569.10 1044.20 L 570.20 1043.90 L 577.20 1036.40 L 588.40 1023.70 L 596.30 1012.80 L 599.80 1007.10 L 602.90 1001.00 L 605.70 994.40 L 608.80 984.10 L 610.90 972.30 L 611.60 959.80 L 610.80 945.00 L 608.50 929.50 L 604.20 911.20 L 600.50 898.80 L 595.70 884.90 L 589.70 869.40 L 583.30 854.10 L 575.50 837.10 L 566.20 818.30 L 565.40 815.90 L 565.10 813.40 L 565.50 811.00 L 566.40 808.70 L 567.80 806.70 L 569.80 805.10 L 633.50 764.80 L 635.20 763.40 L 636.50 761.90 L 637.40 760.10 L 638.10 756.20 L 637.30 752.30 L 636.20 750.50 L 634.80 748.90 Z" fill="#4f5b75" fill-rule="nonzero" node-id="102" stroke="#000000" stroke-linecap="butt" stroke-width="5" target-height="368.59998" target-width="378.69998" target-x="259.4" target-y="675.6"/><path d="M 571.10 1043.60 L 567.60 1046.50 L 563.80 1048.90 L 559.60 1051.00 L 555.00 1052.60 L 550.30 1053.80 L 545.20 1054.60 L 539.70 1055.00 L 533.70 1054.90 L 521.70 1053.60 L 508.20 1050.50 L 499.10 1047.70 L 489.50 1044.20 L 479.30 1039.80 L 469.40 1035.00 L 459.10 1029.50 L 448.40 1023.30 L 437.30 1016.20 L 426.60 1008.90 L 415.70 1001.00 L 404.60 992.30 L 393.30 983.00 L 382.50 973.40 L 371.60 963.20 L 360.60 952.40 L 349.70 941.00 L 339.00 929.20 L 329.10 917.60 L 319.70 906.00 L 310.90 894.40 L 302.40 882.50 L 294.50 870.80 L 287.40 859.40 L 280.90 848.30 L 274.70 836.70 L 269.20 825.60 L 264.40 814.90 L 260.40 804.70 L 256.70 794.20 L 253.90 784.30 L 251.70 775.10 L 249.60 761.30 L 249.20 749.30 L 249.50 743.30 L 250.30 737.80 L 251.40 732.80 L 252.90 728.20 L 254.90 723.80 L 257.30 719.70 L 260.00 716.10 L 263.10 712.80 L 266.60 709.90 L 270.40 707.40 L 274.60 705.40 L 279.20 703.70 L 283.90 702.60 L 289.00 701.80 L 294.50 701.40 L 300.50 701.50 L 312.50 702.80 L 326.10 705.90 L 335.10 708.70 L 344.70 712.20 L 355.00 716.60 L 364.90 721.40 L 375.20 726.90 L 385.90 733.10 L 397.00 740.20 L 407.60 747.50 L 418.50 755.40 L 429.60 764.10 L 440.90 773.40 L 451.80 783.00 L 462.70 793.20 L 473.60 804.00 L 484.60 815.40 L 495.20 827.10 L 505.20 838.80 L 514.50 850.40 L 523.30 861.90 L 531.80 873.90 L 539.70 885.60 L 546.80 897.00 L 553.30 908.10 L 559.60 919.70 L 565.00 930.80 L 569.80 941.50 L 573.90 951.70 L 577.50 962.20 L 580.40 972.10 L 582.50 981.30 L 584.60 995.00 L 585.10 1007.10 L 584.70 1013.10 L 583.90 1018.50 L 582.80 1023.60 L 581.30 1028.20 L 579.30 1032.60 L 577.00 1036.70 L 574.20 1040.30 L 571.10 1043.60 Z" fill="#ffcf85" fill-rule="nonzero" node-id="104" stroke="#000000" stroke-linecap="butt" stroke-width="5" target-height="353.59998" target-width="335.89996" target-x="249.2" target-y="701.4"/><path d="M 731.10 515.00 L 732.50 513.90 L 735.70 512.90 L 739.00 513.30 L 740.60 514.10 L 764.30 529.90 L 773.40 536.40 L 787.50 547.60 L 798.10 557.70 L 808.20 569.00 L 814.00 576.90 L 814.40 578.40 L 814.30 581.50 L 812.80 584.30 L 794.30 605.70 L 785.70 615.10 L 770.00 631.30 L 754.70 645.80 L 729.60 667.60 L 726.80 669.00 L 723.80 669.20 L 720.90 668.10 L 710.60 661.20 L 701.40 654.50 L 692.60 647.60 L 684.30 640.60 L 676.10 633.20 L 659.10 616.50 L 649.70 606.70 L 648.50 605.10 L 647.90 603.40 L 647.60 601.50 L 647.90 599.60 L 648.60 597.90 L 649.80 596.30 L 731.10 515.00 Z" fill="#4f5b75" fill-rule="nonzero" node-id="106" stroke="#000000" stroke-linecap="butt" stroke-width="5" target-height="156.29999" target-width="166.80005" target-x="647.6" target-y="512.9"/><path d="M 833.60 434.30 L 835.80 431.20 L 838.30 428.60 L 841.20 426.50 L 844.40 424.90 L 847.80 423.90 L 851.20 423.50 L 856.40 424.00 L 858.90 424.90 L 861.30 426.10 L 874.40 434.30 L 886.60 442.50 L 897.30 450.60 L 902.00 454.90 L 905.70 458.80 L 908.40 462.40 L 910.10 465.30 L 911.10 468.00 L 911.60 470.30 L 911.50 472.50 L 910.90 475.20 L 909.80 478.20 L 908.00 481.30 L 905.50 484.80 L 901.80 489.10 L 897.00 494.00 L 890.90 499.50 L 860.20 525.50 L 840.10 543.20 L 835.50 545.50 L 830.50 546.40 L 825.50 545.80 L 823.10 544.90 L 820.80 543.60 L 813.30 538.20 L 799.70 527.40 L 793.20 521.60 L 779.90 508.90 L 778.10 506.80 L 776.80 504.50 L 775.80 502.10 L 775.20 499.60 L 775.20 494.60 L 776.70 489.80 L 778.00 487.50 L 779.60 485.40 L 781.60 483.60 L 798.20 473.00 L 804.90 468.20 L 811.10 463.00 L 815.10 459.20 L 822.90 450.50 L 826.40 445.70 L 833.60 434.30 Z" fill="#fdcd81" fill-rule="nonzero" node-id="108" stroke="#000000" stroke-linecap="butt" stroke-width="5" target-height="122.900024" target-width="136.39996" target-x="775.2" target-y="423.5"/><path d="M 789.40 415.80 L 790.70 414.40 L 792.30 413.50 L 794.10 413.00 L 797.80 413.00 L 799.60 413.70 L 801.30 414.70 L 802.70 416.00 L 804.00 417.80 L 810.00 427.80 L 817.70 438.00 L 827.60 448.90 L 836.20 457.20 L 846.70 466.60 L 858.10 476.10 L 872.00 487.00 L 904.60 511.00 L 906.10 512.40 L 907.10 514.10 L 907.70 515.90 L 907.80 517.90 L 907.40 519.70 L 906.40 521.60 L 882.90 555.00 L 874.50 566.20 L 866.50 576.30 L 855.40 588.60 L 844.00 599.30 L 838.00 604.00 L 831.70 608.40 L 825.10 612.40 L 818.10 616.00 L 810.60 619.30 L 809.20 619.70 L 806.20 619.60 L 803.60 618.20 L 802.50 617.00 L 788.70 599.40 L 779.40 588.30 L 768.60 576.40 L 761.40 568.90 L 742.80 551.30 L 717.90 529.30 L 701.90 515.70 L 699.90 513.10 L 699.30 511.60 L 699.20 508.50 L 700.30 505.60 L 701.30 504.30 L 717.50 492.60 L 724.10 487.40 L 733.50 479.40 L 742.20 471.40 L 750.40 463.10 L 765.80 445.70 L 789.40 415.80 Z" fill="#f0866e" fill-rule="nonzero" node-id="110" stroke="#000000" stroke-linecap="butt" stroke-width="5" target-height="206.70001" target-width="208.59998" target-x="699.2" target-y="413"/><path d="M 641.00 520.20 L 643.50 517.90 L 646.70 516.90 L 649.90 517.30 L 652.70 519.00 L 668.10 540.80 L 681.90 558.60 L 695.70 574.70 L 706.40 585.90 L 717.10 596.50 L 728.20 606.60 L 739.70 616.50 L 764.20 636.30 L 799.90 663.70 L 801.30 665.10 L 802.30 666.70 L 802.80 668.50 L 802.80 670.40 L 802.40 672.20 L 801.50 673.90 L 779.30 703.80 L 768.50 717.40 L 757.90 730.00 L 747.10 742.10 L 736.00 753.60 L 724.50 764.80 L 712.30 775.90 L 699.50 786.80 L 685.50 798.00 L 670.80 809.20 L 654.30 821.20 L 652.60 822.10 L 650.70 822.50 L 648.80 822.50 L 646.90 821.90 L 645.30 820.90 L 643.90 819.40 L 632.70 804.30 L 622.10 790.70 L 611.30 777.60 L 600.70 765.40 L 589.80 753.70 L 578.70 742.40 L 567.20 731.30 L 555.10 720.30 L 528.90 698.00 L 499.00 674.20 L 496.90 671.70 L 496.10 668.70 L 496.50 665.60 L 498.10 662.90 L 529.40 640.50 L 542.90 630.00 L 555.30 619.60 L 567.10 608.90 L 578.20 598.10 L 588.90 586.90 L 599.30 575.00 L 609.50 562.70 L 619.90 549.40 L 641.00 520.20 Z" fill="#388cb0" fill-rule="nonzero" node-id="112" stroke="#000000" stroke-linecap="butt" stroke-width="5" target-height="305.59998" target-width="306.69998" target-x="496.1" target-y="516.9"/><path d="M 389.70 736.70 L 312.10 974.90" fill="none" node-id="114" stroke="#000000" stroke-linecap="round" stroke-width="5" target-height="238.20001" target-width="77.600006" target-x="312.1" target-y="736.7"/><path d="M 554.60 913.50 L 312.10 974.90" fill="none" node-id="116" stroke="#000000" stroke-linecap="round" stroke-width="5" target-height="61.400024" target-width="242.49997" target-x="312.1" target-y="913.5"/><path d="M 476.60 810.00 L 312.10 974.90" fill="none" node-id="118" stroke="#000000" stroke-linecap="round" stroke-width="5" target-height="164.90002" target-width="164.5" target-x="312.1" target-y="810"/><path d="M 476.60 810.00 L 367.30 806.60" fill="none" node-id="120" stroke="#000000" stroke-linecap="round" stroke-width="5" target-height="3.4000244" target-width="109.30002" target-x="367.3" target-y="806.6"/><path d="M 476.60 810.00 L 477.50 930.40" fill="none" node-id="122" stroke="#000000" stroke-linecap="round" stroke-width="5" target-height="120.400024" target-width="0.8999939" target-x="476.6" target-y="810"/><path d="M 326.50 983.90 L 326.30 988.10 L 325.60 991.90 L 324.30 995.40 L 322.80 998.20 L 321.00 1000.00 L 319.00 1001.40 L 316.80 1002.40 L 311.90 1003.20 L 309.20 1003.10 L 303.60 1001.70 L 300.60 1000.40 L 295.00 996.80 L 292.10 994.30 L 289.40 991.10 L 287.30 987.70 L 285.90 984.30 L 285.10 980.60 L 284.80 977.10 L 285.20 973.70 L 285.90 971.20 L 288.20 966.80 L 289.80 964.80 L 291.80 963.20 L 293.90 962.00 L 296.40 961.00 L 301.70 960.30 L 304.70 960.40 L 310.40 961.80 L 313.20 963.00 L 318.30 966.30 L 320.60 968.40 L 322.40 970.60 L 325.00 975.60 L 325.80 978.30 L 326.50 983.90 Z" fill="#4f5b75" fill-rule="nonzero" node-id="124" stroke="#000000" stroke-linecap="butt" stroke-width="5" target-height="42.900024" target-width="41.700012" target-x="284.8" target-y="960.3"/><path d="M 291.90 741.30 L 289.10 747.80 L 287.00 754.10 L 285.60 760.00 L 284.60 766.00 L 284.30 772.00 L 284.50 778.00 L 285.30 784.00 L 286.70 790.30 L 288.70 797.00 L 294.20 810.60 L 298.00 818.40 L 304.40 830.10 L 312.40 843.70" fill="none" node-id="126" stroke="#000000" stroke-linecap="round" stroke-width="5" target-height="102.400024" target-width="28.100006" target-x="284.3" target-y="741.3"/><path d="M 441.50 980.50 L 444.90 985.60 L 448.70 990.20 L 452.60 994.40 L 456.90 998.00 L 466.10 1004.30 L 476.00 1009.10 L 483.00 1011.70 L 490.00 1013.70 L 504.20 1016.50 L 517.90 1018.00 L 536.60 1018.60" fill="none" node-id="128" stroke="#000000" stroke-linecap="round" stroke-width="5" target-height="38.099976" target-width="95.099976" target-x="441.5" target-y="980.5"/><path d="M 560.50 652.40 L 562.10 651.20 L 563.90 650.50 L 565.80 650.30 L 567.70 650.60 L 569.40 651.40 L 571.00 652.60 L 632.10 715.80 L 633.40 717.50 L 634.10 719.40 L 634.20 721.50 L 633.80 723.40 L 632.90 725.30 L 631.40 726.80 L 611.50 742.90 L 609.80 743.90 L 608.10 744.40 L 606.20 744.50 L 604.40 744.10 L 602.70 743.30 L 601.20 742.00 L 543.70 678.40 L 542.50 676.70 L 541.90 674.90 L 541.70 673.00 L 542.00 671.20 L 542.80 669.40 L 544.10 667.90 L 560.50 652.40 Z" fill="#f0866e" fill-rule="nonzero" node-id="130" stroke="#000000" stroke-linecap="butt" stroke-width="5" target-height="94.20001" target-width="92.5" target-x="541.7" target-y="650.3"/><path d="M 656.30 569.30 L 657.90 568.30 L 659.60 567.70 L 661.30 567.50 L 663.10 567.80 L 664.80 568.40 L 666.30 569.50 L 685.30 587.10 L 686.70 588.80 L 687.50 590.70 L 687.70 592.80 L 687.40 594.80 L 686.50 596.70 L 685.10 598.30 L 615.00 657.30 L 613.30 658.30 L 611.50 658.90 L 609.60 659.00 L 607.70 658.60 L 606.00 657.80 L 604.50 656.40 L 588.30 637.60 L 587.20 635.90 L 586.60 634.00 L 586.50 632.10 L 586.90 630.20 L 587.70 628.50 L 589.10 627.00 L 656.30 569.30 Z" fill="#ffcf85" fill-rule="nonzero" node-id="132" stroke="#000000" stroke-linecap="butt" stroke-width="5" target-height="91.5" target-width="101.20001" target-x="586.5" target-y="567.5"/><g node-id="153"><path d="M 683.40 672.30 L 680.00 694.00 L 679.40 695.90 L 678.40 697.60 L 677.00 698.90 L 675.30 699.80 L 673.40 700.30 L 671.40 700.20 L 634.70 694.40 L 632.80 693.80 L 631.20 692.80 L 629.90 691.40 L 628.90 689.70 L 628.50 687.90 L 628.50 685.80 L 632.00 664.10 L 632.50 662.20 L 633.60 660.50 L 635.00 659.20 L 636.60 658.30 L 638.50 657.80 L 640.50 657.90 L 677.20 663.70 L 679.10 664.30 L 680.70 665.30 L 682.10 666.70 L 683.00 668.40 L 683.40 670.20 L 683.40 672.30 Z" fill="#4f5b75" fill-rule="nonzero" group-id="2" node-id="136" stroke="#000000" stroke-linecap="butt" stroke-width="4.9999995" target-height="42.5" target-width="54.900024" target-x="628.5" target-y="657.8"/></g><g node-id="154"><path d="M 722.70 634.70 L 720.60 647.70 L 720.00 649.70 L 719.00 651.30 L 717.60 652.60 L 715.90 653.50 L 714.10 654.00 L 712.00 654.00 L 687.20 650.00 L 685.30 649.40 L 683.60 648.40 L 682.30 647.00 L 681.40 645.30 L 680.90 643.50 L 681.00 641.40 L 683.00 628.40 L 683.60 626.40 L 684.60 624.80 L 686.00 623.50 L 687.70 622.60 L 689.60 622.10 L 691.60 622.20 L 716.50 626.10 L 718.40 626.70 L 720.00 627.70 L 721.40 629.10 L 722.30 630.80 L 722.70 632.60 L 722.70 634.70 Z" fill="#f0866e" fill-rule="nonzero" group-id="3" node-id="141" stroke="#000000" stroke-linecap="butt" stroke-width="4.9999995" target-height="31.900024" target-width="41.799988" target-x="680.9" target-y="622.1"/></g><path d="M 882.10 523.60 L 873.20 531.20 L 865.80 538.20 L 858.90 545.30 L 852.80 552.10 L 835.60 572.40 L 823.10 586.00 L 810.70 597.60 L 798.40 607.30" fill="none" node-id="144" stroke="#000000" stroke-linecap="round" stroke-width="5" target-height="83.70001" target-width="83.69995" target-x="798.4" target-y="523.6"/><path d="M 845.00 534.30 L 827.40 548.00 L 820.50 553.90 L 811.00 562.80 L 803.80 570.20 L 797.70 577.30 L 785.20 594.10" fill="none" node-id="146" stroke="#000000" stroke-linecap="round" stroke-width="5" target-height="59.799988" target-width="59.799988" target-x="785.2" target-y="534.3"/><path d="M 812.40 541.10 L 806.40 545.80 L 796.90 554.40 L 790.90 560.80 L 779.00 575.50 L 776.80 577.90 L 773.20 580.40" fill="none" node-id="148" stroke="#000000" stroke-linecap="round" stroke-width="5" target-height="39.30005" target-width="39.200012" target-x="773.2" target-y="541.1"/><path d="M 781.20 544.00 L 777.70 546.10 L 772.50 550.40 L 769.50 553.80 L 764.00 562.20 L 762.90 563.40 L 760.70 564.50" fill="none" node-id="150" stroke="#000000" stroke-linecap="round" stroke-width="5" target-height="20.5" target-width="20.5" target-x="760.7" target-y="544"/></svg>
